<?xml version="1.0" standalone="no"?>
<!DOCTYPE svg PUBLIC "-//W3C//DTD SVG 20010904//EN"
 "http://www.w3.org/TR/2001/REC-SVG-20010904/DTD/svg10.dtd">
<svg version="1.0" xmlns="http://www.w3.org/2000/svg"
 width="2560.000000pt" height="3260.000000pt" viewBox="0 0 2560.000000 3260.000000"
 preserveAspectRatio="xMidYMid meet">

<g transform="translate(0.000000,3260.000000) scale(0.100000,-0.100000)"
fill="#000000" stroke="none">
<path d="M13825 30239 c-46 -13 -82 -57 -119 -147 -49 -117 -124 -204 -239
-276 -79 -50 -128 -70 -276 -111 -454 -128 -675 -215 -930 -367 -140 -85 -368
-261 -587 -455 -45 -39 -96 -79 -113 -88 -49 -25 -117 -28 -225 -11 -55 9
-212 28 -350 43 -216 23 -293 26 -551 26 -727 -2 -1267 -61 -1711 -188 -143
-41 -508 -166 -649 -223 -171 -68 -451 -191 -1295 -567 -863 -384 -1190 -527
-1385 -605 -242 -96 -667 -224 -917 -274 -313 -64 -659 -47 -1179 59 -136 28
-167 25 -209 -20 -39 -41 -38 -105 3 -202 142 -335 484 -579 933 -666 l113
-21 -98 -101 c-130 -134 -218 -253 -403 -545 -276 -436 -287 -465 -393 -1040
-113 -618 -174 -903 -235 -1095 -44 -139 -172 -394 -277 -555 -251 -380 -513
-619 -886 -806 -118 -59 -134 -64 -192 -64 -35 0 -94 7 -131 16 -79 18 -114
12 -159 -28 -63 -54 -64 -120 -5 -225 87 -153 229 -309 401 -437 242 -181 431
-246 669 -233 l109 6 -93 -142 c-217 -333 -420 -701 -485 -882 -141 -388 -177
-860 -104 -1355 34 -238 83 -381 244 -725 107 -227 137 -281 297 -540 58 -93
188 -304 289 -468 437 -709 664 -1148 718 -1390 24 -110 17 -423 -14 -587 -60
-314 -190 -705 -283 -851 -45 -70 -138 -164 -211 -212 -63 -42 -122 -64 -239
-92 -104 -24 -148 -50 -176 -105 -38 -75 -6 -157 78 -200 89 -45 296 -92 479
-109 127 -12 230 -2 399 39 68 17 127 30 130 30 4 0 -24 -19 -63 -41 -152 -89
-195 -135 -195 -212 0 -43 34 -94 80 -121 31 -19 51 -21 185 -20 372 2 828
110 1155 274 161 80 275 160 416 288 l121 110 107 -163 c184 -278 318 -412
601 -600 523 -348 1098 -586 1645 -681 131 -23 571 -31 741 -14 l126 13 49
-27 c27 -15 92 -58 144 -97 110 -81 354 -240 567 -368 308 -185 542 -286 1128
-489 l170 -59 22 -172 c34 -279 43 -418 43 -705 0 -265 -3 -316 -35 -656 -37
-402 -76 -583 -166 -763 -105 -213 -263 -375 -486 -501 -171 -96 -357 -168
-808 -312 -524 -168 -651 -197 -1125 -253 -436 -53 -565 -60 -1560 -86 -1276
-34 -1646 -56 -1828 -109 -173 -50 -546 -343 -685 -538 -66 -92 -104 -179
-137 -314 -105 -425 -221 -1472 -240 -2179 -14 -498 -12 -698 5 -801 45 -254
144 -401 340 -501 293 -150 950 -399 1730 -656 2370 -781 4837 -1320 6530
-1427 94 -6 217 -15 275 -20 136 -13 624 -13 760 0 58 5 182 14 275 20 1693
107 4160 646 6530 1427 780 257 1437 506 1730 656 196 100 295 247 340 501 17
103 19 303 5 801 -19 707 -135 1754 -240 2179 -33 135 -71 222 -137 314 -139
195 -512 488 -685 538 -182 53 -552 75 -1828 109 -995 26 -1124 33 -1560 86
-474 56 -601 85 -1125 253 -451 144 -637 216 -808 312 -329 185 -519 452 -596
835 -21 104 -44 287 -55 429 -4 41 -11 127 -18 190 -15 154 -4 517 21 740 21
178 68 513 76 540 3 9 57 33 127 58 420 149 881 350 1153 502 326 183 727 501
1225 973 80 75 154 139 165 141 11 2 99 12 195 21 285 26 513 64 745 122 288
72 562 225 904 507 73 61 264 271 284 314 6 12 13 22 17 22 4 0 28 -18 52 -40
58 -51 241 -182 338 -242 150 -94 371 -184 555 -226 205 -48 304 -57 615 -57
292 0 296 0 405 29 278 72 385 144 385 260 0 44 -4 53 -42 91 -36 35 -60 48
-146 76 -193 61 -424 231 -726 531 -110 109 -197 201 -194 203 3 3 61 -6 129
-19 150 -30 385 -56 511 -56 183 0 380 35 576 102 151 51 212 123 184 217 -19
61 -62 95 -165 131 -201 70 -476 258 -682 467 -111 113 -211 240 -314 402
l-73 113 54 57 c439 458 616 659 827 941 209 279 459 748 564 1062 167 494
203 1081 101 1638 -48 261 -192 772 -282 1005 -59 150 -145 342 -232 515 -73
146 -284 531 -325 594 l-19 28 40 -6 c86 -14 245 -25 359 -26 417 0 745 163
950 473 67 102 80 159 50 216 -25 50 -78 68 -220 74 -134 7 -244 25 -321 54
-144 55 -361 258 -551 514 -148 200 -214 331 -360 709 -95 246 -97 252 -194
625 -156 601 -210 766 -380 1142 -329 732 -622 1209 -933 1518 -212 211 -542
431 -971 647 -99 50 -181 91 -183 93 -1 1 27 63 62 137 217 456 264 655 253
1068 -8 301 -42 551 -87 640 -22 42 -80 80 -125 80 -55 0 -104 -38 -177 -137
-89 -121 -223 -261 -303 -318 -63 -44 -171 -102 -254 -135 l-49 -19 39 96 c66
162 112 374 125 586 14 219 -45 329 -175 329 -62 0 -109 -21 -209 -93 -217
-159 -714 -337 -1497 -539 -553 -143 -897 -203 -1440 -255 -409 -38 -1300 -99
-1373 -93 l-40 3 39 64 c79 131 108 251 109 453 0 188 -28 300 -124 486 -57
109 -98 159 -150 183 -45 20 -57 21 -101 8z m84 -426 c32 -90 41 -140 41 -253
0 -118 -18 -217 -50 -281 -13 -24 -63 -102 -112 -172 -49 -70 -93 -139 -98
-153 -31 -79 10 -157 92 -178 54 -13 1191 60 1708 110 545 52 886 112 1445
254 756 192 1339 395 1553 542 l42 29 0 -50 c0 -76 -36 -268 -70 -374 -17 -53
-73 -181 -125 -285 -52 -105 -95 -200 -95 -212 0 -30 25 -75 56 -99 40 -32 95
-26 240 23 363 123 519 210 701 395 57 57 105 102 107 100 8 -8 26 -289 26
-405 0 -310 -56 -506 -262 -922 -112 -225 -114 -238 -62 -314 23 -33 58 -54
247 -149 503 -253 797 -448 1014 -672 268 -276 511 -671 798 -1292 200 -433
270 -633 405 -1160 98 -386 121 -459 215 -705 140 -362 196 -481 313 -660 181
-277 437 -545 631 -660 88 -52 188 -87 314 -107 53 -9 97 -20 97 -24 0 -5 -30
-33 -67 -64 -82 -68 -220 -137 -333 -167 -76 -21 -106 -23 -285 -21 -163 1
-233 6 -380 28 -99 16 -198 30 -220 32 -83 8 -152 -61 -140 -139 3 -23 51
-114 124 -235 281 -470 503 -917 612 -1232 124 -361 221 -739 265 -1031 25
-169 30 -525 10 -720 -49 -479 -166 -813 -469 -1335 -170 -292 -419 -599 -854
-1053 -108 -111 -214 -216 -238 -232 -50 -35 -70 -75 -62 -131 6 -46 162 -302
282 -464 181 -243 452 -486 714 -640 45 -26 79 -50 76 -55 -11 -17 -178 -35
-330 -34 -258 2 -488 41 -735 126 -202 69 -209 70 -246 63 -44 -8 -90 -55 -98
-101 -10 -50 20 -107 143 -272 130 -176 291 -353 461 -508 164 -150 254 -220
413 -325 87 -57 113 -79 100 -83 -85 -26 -391 -34 -608 -15 -151 13 -336 49
-451 89 -208 73 -469 229 -645 387 -86 76 -144 105 -209 105 -84 0 -134 -37
-223 -163 -183 -263 -619 -579 -942 -684 -177 -58 -526 -116 -890 -150 -206
-19 -211 -22 -370 -174 -384 -369 -760 -685 -1020 -858 -290 -193 -703 -384
-1303 -603 -117 -43 -222 -86 -234 -97 -37 -33 -57 -89 -83 -226 -78 -424
-119 -944 -96 -1217 22 -255 62 -585 86 -706 99 -491 350 -820 800 -1048 194
-99 416 -179 1039 -376 290 -91 501 -131 998 -189 384 -45 513 -52 1593 -81
1197 -33 1522 -52 1659 -97 53 -17 204 -115 301 -195 118 -97 263 -249 293
-306 38 -71 74 -210 112 -435 68 -396 140 -1076 169 -1587 17 -297 24 -936 11
-1014 -15 -95 -44 -171 -86 -233 -41 -60 -106 -97 -354 -203 -757 -325 -2224
-803 -3510 -1144 -1657 -439 -3051 -696 -4360 -803 -305 -25 -1095 -25 -1400
0 -1309 107 -2703 364 -4360 803 -1286 341 -2753 819 -3510 1144 -248 106
-313 143 -354 203 -42 62 -71 138 -86 233 -13 78 -6 717 11 1014 29 511 101
1191 169 1587 38 225 74 364 112 435 30 57 175 209 293 306 97 80 248 178 301
195 137 45 462 64 1659 97 1080 29 1209 36 1593 81 414 48 546 70 763 124 144
36 180 47 599 182 596 192 864 327 1086 548 249 248 374 544 429 1015 76 661
82 972 25 1490 -40 363 -55 425 -114 464 -14 8 -125 50 -248 92 -503 171 -790
292 -1025 430 -182 107 -470 292 -599 385 -71 51 -164 111 -208 133 l-79 41
-151 -5 c-83 -3 -266 -5 -406 -4 -220 0 -271 3 -375 23 -455 85 -904 262
-1356 535 -254 154 -421 286 -537 425 -81 97 -203 278 -283 422 -66 117 -98
149 -152 149 -45 0 -63 -14 -227 -175 -85 -83 -192 -179 -237 -212 -150 -111
-374 -213 -613 -279 -110 -30 -320 -74 -357 -74 -7 0 8 31 36 73 61 90 113
207 119 268 8 80 -42 139 -119 139 -17 0 -102 -23 -188 -51 -289 -94 -410
-121 -557 -127 -171 -6 -183 1 -103 57 219 154 328 327 457 722 162 494 209
928 132 1222 -71 270 -302 715 -736 1419 -415 671 -461 750 -540 913 -197 409
-236 531 -276 845 -20 162 -17 557 6 705 24 159 65 321 111 436 92 234 316
615 644 1098 58 85 71 111 71 143 0 48 -20 89 -56 113 -54 35 -81 36 -219 9
-98 -20 -163 -27 -265 -27 -130 -1 -138 0 -216 31 -120 48 -281 159 -393 271
-95 94 -96 95 -66 98 134 16 423 166 665 346 271 202 569 581 755 962 143 292
197 497 351 1335 118 642 112 624 383 1050 258 405 310 465 674 763 53 43 71
88 56 140 -18 67 -76 97 -185 97 -34 0 -108 5 -165 10 -262 26 -455 89 -622
202 -58 40 -197 164 -197 177 0 4 46 -1 102 -11 308 -52 657 -66 856 -35 216
35 500 108 812 209 303 99 433 154 1775 751 1159 516 1333 587 1710 706 475
149 989 211 1756 211 293 0 627 -25 875 -66 228 -37 359 2 533 160 142 129
358 301 491 390 103 69 321 180 450 229 105 40 294 100 468 147 165 44 255 82
360 150 93 60 215 173 248 230 10 16 21 30 25 30 4 0 16 -26 28 -57z"/>
</g>
</svg>
